<svg xmlns="http://www.w3.org/2000/svg" width="600" height="800" viewBox="0 0 600 800">
  <defs>
    <linearGradient id="g" x1="0" y1="0" x2="1" y2="1">
      <stop offset="0" stop-color="#0f3d4c"/>
      <stop offset="1" stop-color="#14606f"/>
    </linearGradient>
  </defs>
  <rect width="600" height="800" fill="url(#g)"/>
  <rect x="18" y="28" width="44" height="44" fill="none" stroke="#e8d9a0" stroke-width="2.5" opacity="0.55" transform="rotate(45 40 50)"/><circle cx="40" cy="50" r="6" fill="#e8d9a0" opacity="0.7"/><rect x="108" y="28" width="44" height="44" fill="none" stroke="#e8d9a0" stroke-width="2.5" opacity="0.55" transform="rotate(45 130 50)"/><circle cx="130" cy="50" r="6" fill="#e8d9a0" opacity="0.7"/><rect x="198" y="28" width="44" height="44" fill="none" stroke="#e8d9a0" stroke-width="2.5" opacity="0.55" transform="rotate(45 220 50)"/><circle cx="220" cy="50" r="6" fill="#e8d9a0" opacity="0.7"/><rect x="288" y="28" width="44" height="44" fill="none" stroke="#e8d9a0" stroke-width="2.5" opacity="0.55" transform="rotate(45 310 50)"/><circle cx="310" cy="50" r="6" fill="#e8d9a0" opacity="0.7"/><rect x="63" y="133" width="44" height="44" fill="none" stroke="#e8d9a0" stroke-width="2.5" opacity="0.55" transform="rotate(45 85 155)"/><circle cx="85" cy="155" r="6" fill="#e8d9a0" opacity="0.7"/><rect x="153" y="133" width="44" height="44" fill="none" stroke="#e8d9a0" stroke-width="2.5" opacity="0.55" transform="rotate(45 175 155)"/><circle cx="175" cy="155" r="6" fill="#e8d9a0" opacity="0.7"/><rect x="243" y="133" width="44" height="44" fill="none" stroke="#e8d9a0" stroke-width="2.5" opacity="0.55" transform="rotate(45 265 155)"/><circle cx="265" cy="155" r="6" fill="#e8d9a0" opacity="0.7"/><rect x="333" y="133" width="44" height="44" fill="none" stroke="#e8d9a0" stroke-width="2.5" opacity="0.55" transform="rotate(45 355 155)"/><circle cx="355" cy="155" r="6" fill="#e8d9a0" opacity="0.7"/><rect x="18" y="238" width="44" height="44" fill="none" stroke="#e8d9a0" stroke-width="2.5" opacity="0.55" transform="rotate(45 40 260)"/><circle cx="40" cy="260" r="6" fill="#e8d9a0" opacity="0.7"/><rect x="108" y="238" width="44" height="44" fill="none" stroke="#e8d9a0" stroke-width="2.5" opacity="0.55" transform="rotate(45 130 260)"/><circle cx="130" cy="260" r="6" fill="#e8d9a0" opacity="0.7"/><rect x="198" y="238" width="44" height="44" fill="none" stroke="#e8d9a0" stroke-width="2.5" opacity="0.55" transform="rotate(45 220 260)"/><circle cx="220" cy="260" r="6" fill="#e8d9a0" opacity="0.7"/><rect x="288" y="238" width="44" height="44" fill="none" stroke="#e8d9a0" stroke-width="2.5" opacity="0.55" transform="rotate(45 310 260)"/><circle cx="310" cy="260" r="6" fill="#e8d9a0" opacity="0.7"/><rect x="63" y="343" width="44" height="44" fill="none" stroke="#e8d9a0" stroke-width="2.5" opacity="0.55" transform="rotate(45 85 365)"/><circle cx="85" cy="365" r="6" fill="#e8d9a0" opacity="0.7"/><rect x="153" y="343" width="44" height="44" fill="none" stroke="#e8d9a0" stroke-width="2.5" opacity="0.55" transform="rotate(45 175 365)"/><circle cx="175" cy="365" r="6" fill="#e8d9a0" opacity="0.7"/><rect x="243" y="343" width="44" height="44" fill="none" stroke="#e8d9a0" stroke-width="2.5" opacity="0.55" transform="rotate(45 265 365)"/><circle cx="265" cy="365" r="6" fill="#e8d9a0" opacity="0.7"/><rect x="333" y="343" width="44" height="44" fill="none" stroke="#e8d9a0" stroke-width="2.5" opacity="0.55" transform="rotate(45 355 365)"/><circle cx="355" cy="365" r="6" fill="#e8d9a0" opacity="0.7"/><rect x="18" y="448" width="44" height="44" fill="none" stroke="#e8d9a0" stroke-width="2.5" opacity="0.55" transform="rotate(45 40 470)"/><circle cx="40" cy="470" r="6" fill="#e8d9a0" opacity="0.7"/><rect x="108" y="448" width="44" height="44" fill="none" stroke="#e8d9a0" stroke-width="2.5" opacity="0.55" transform="rotate(45 130 470)"/><circle cx="130" cy="470" r="6" fill="#e8d9a0" opacity="0.7"/><rect x="198" y="448" width="44" height="44" fill="none" stroke="#e8d9a0" stroke-width="2.5" opacity="0.55" transform="rotate(45 220 470)"/><circle cx="220" cy="470" r="6" fill="#e8d9a0" opacity="0.7"/><rect x="288" y="448" width="44" height="44" fill="none" stroke="#e8d9a0" stroke-width="2.5" opacity="0.55" transform="rotate(45 310 470)"/><circle cx="310" cy="470" r="6" fill="#e8d9a0" opacity="0.7"/><rect x="63" y="553" width="44" height="44" fill="none" stroke="#e8d9a0" stroke-width="2.5" opacity="0.55" transform="rotate(45 85 575)"/><circle cx="85" cy="575" r="6" fill="#e8d9a0" opacity="0.7"/><rect x="153" y="553" width="44" height="44" fill="none" stroke="#e8d9a0" stroke-width="2.5" opacity="0.55" transform="rotate(45 175 575)"/><circle cx="175" cy="575" r="6" fill="#e8d9a0" opacity="0.7"/><rect x="243" y="553" width="44" height="44" fill="none" stroke="#e8d9a0" stroke-width="2.5" opacity="0.55" transform="rotate(45 265 575)"/><circle cx="265" cy="575" r="6" fill="#e8d9a0" opacity="0.7"/><rect x="333" y="553" width="44" height="44" fill="none" stroke="#e8d9a0" stroke-width="2.5" opacity="0.55" transform="rotate(45 355 575)"/><circle cx="355" cy="575" r="6" fill="#e8d9a0" opacity="0.7"/>
  <rect x="30" y="30" width="540" height="740" fill="none" stroke="#e8d9a0" stroke-width="3" opacity="0.8"/>
  <rect x="44" y="44" width="512" height="712" fill="none" stroke="#e8d9a0" stroke-width="1" opacity="0.5"/>
  <text x="300" y="400" text-anchor="middle" font-family="Georgia, serif" font-size="40" fill="#e8d9a0" opacity="0.95">Mayur Vivah</text>
  <text x="300" y="445" text-anchor="middle" font-family="Georgia, serif" font-size="20" fill="#e8d9a0" opacity="0.7">sample image</text>
</svg>